<?xml version="1.0" encoding="utf-8" ?>
<svg xmlns="http://www.w3.org/2000/svg" xmlns:xlink="http://www.w3.org/1999/xlink" width="22" height="16">
	<defs>
		<clipPath id="clip_0">
			<rect x="-125" y="-2627" width="1551" height="3303" clip-rule="evenodd"/>
		</clipPath>
	</defs>
	<g clip-path="url(#clip_0)">
		<path fill="#71737a" stroke="none" transform="translate(0 -0.2) rotate(180 11 8)" d="M7.16049 0.231652C7.46995 -0.0772174 7.95713 -0.0772174 8.26658 0.231652C8.56558 0.530087 8.56558 1.02678 8.26658 1.32452L2.65807 6.92243L21.1654 6.92243C21.5968 6.92243 21.9509 7.2647 21.9509 7.6953C21.9509 8.12591 21.5968 8.4793 21.1654 8.4793L2.65807 8.4793L8.26658 14.0668C8.56558 14.3757 8.56558 14.873 8.26658 15.1708C7.95713 15.4797 7.46995 15.4797 7.16049 15.1708L0.22425 8.24765C-0.07475 7.94922 -0.07475 7.45252 0.22425 7.15478L7.16049 0.231652Z"/>
	</g>
</svg>
