<?xml version="1.0" encoding="UTF-8"?>
<svg width="48px" height="48px" viewBox="0 0 48 48" version="1.1" xmlns="http://www.w3.org/2000/svg" xmlns:xlink="http://www.w3.org/1999/xlink">
    <!-- Generator: Sketch 51.2 (57519) - http://www.bohemiancoding.com/sketch -->
    <title>facebook icon</title>
    <desc>Created with Sketch.</desc>
    <defs></defs>
    <g id="Page-1" stroke="none" stroke-width="1" fill="none" fill-rule="evenodd">
        <path d="M27.6610864,16.0035371 L25.5023957,16 C23.0771806,16 21.5099001,17.6421148 21.5099001,20.1837229 L21.5099001,22.1126994 L19.3394331,22.1126994 C19.151879,22.1126994 19,22.2679796 19,22.4595154 L19,25.2543824 C19,25.4459183 19.1520522,25.6010216 19.3394331,25.6010216 L21.5099001,25.6010216 L21.5099001,32.6533608 C21.5099001,32.8448966 21.6617791,33 21.8493333,33 L24.6811753,33 C24.8687294,33 25.0206084,32.8447198 25.0206084,32.6533608 L25.0206084,25.6010216 L27.5583906,25.6010216 C27.7459447,25.6010216 27.8978237,25.4459183 27.8978237,25.2543824 L27.8988628,22.4595154 C27.8988628,22.3675499 27.8630145,22.2794753 27.7994574,22.214392 C27.7359002,22.1493087 27.6493102,22.1126994 27.5592565,22.1126994 L25.0206084,22.1126994 L25.0206084,20.477482 C25.0206084,19.6915306 25.2040062,19.2925418 26.2065462,19.2925418 L27.6607401,19.2920113 C27.848121,19.2920113 28,19.1367311 28,18.9453721 L28,16.3501763 C28,16.1589942 27.8482942,16.0038908 27.6610864,16.0035371 Z" id="Shape" fill="#524D4B" fill-rule="nonzero"></path>
    </g>
</svg>
