<?xml version="1.0" encoding="UTF-8"?>
<svg width="48px" height="48px" viewBox="0 0 48 48" version="1.1" xmlns="http://www.w3.org/2000/svg" xmlns:xlink="http://www.w3.org/1999/xlink">
    <!-- Generator: Sketch 51.2 (57519) - http://www.bohemiancoding.com/sketch -->
    <title>share icon</title>
    <desc>Created with Sketch.</desc>
    <defs></defs>
    <g id="Page-1" stroke="none" stroke-width="1" fill="none" fill-rule="evenodd">
        <path d="M29.1651026,27.7237319 C28.4479697,27.7237319 27.8060568,27.9929678 27.3169837,28.4174726 L20.5820382,24.6689765 C20.6306447,24.4612313 20.6682546,24.251978 20.6682546,24.0359724 C20.6682546,23.8199668 20.6298566,23.6114675 20.5820382,23.4029683 L27.2409399,19.6897076 C27.748818,20.1397136 28.4204965,20.4209459 29.1651026,20.4209459 C30.7349792,20.4209459 32,19.2126923 32,17.7104558 C32,16.2112356 30.7341912,15 29.1651026,15 C27.5983422,15 26.3325692,16.2112356 26.3325692,17.709736 C26.3325692,17.9287236 26.3709672,18.1342409 26.4187856,18.3427401 L19.7598481,22.0589828 C19.251182,21.6067489 18.5802915,21.3262364 17.8348974,21.3262364 C16.2650208,21.3262364 15,22.5367521 15,24.0359724 C15,25.5351926 16.2650208,26.7464625 17.8348974,26.7464625 C18.5794677,26.7464625 19.251182,26.4651959 19.7590601,26.0152241 L26.4822211,29.7719807 C26.4359787,29.9632393 26.4069653,30.162724 26.4069653,30.3614889 C26.4069653,31.8164935 27.646089,33 29.1642787,33 C30.6840087,33 31.9239204,31.8172475 31.9239204,30.3614889 C31.9239204,28.9057303 30.6848325,27.7237319 29.1651026,27.7237319 Z" id="Shape" fill="#524D4B" fill-rule="nonzero"></path>
    </g>
</svg>
