<svg xmlns="http://www.w3.org/2000/svg" viewBox="0 0 85 25">
  <path fill="#302B29" d="M3.15737054 16.6061364c.05691964-.4037879.14799107-.8015152.27321428-1.189394.14267857-.4522727.35517857-.8787879.62991072-1.2651515.25651785-.3590909.584375-.6606061.96383928-.8863636.39919643-.2371212.85607143-.3598485 1.32053572-.3560606.87732142-.0416667 1.72959821.2984848 2.3375.9318181.63066964.7848485 1.00178571 1.7454546 1.0625 2.7492425v.1893939H3.11183482l.04553572-.1734848zm7.04285716 6.7272727l-.25803574-1.0613636h-.10625c-2.178125.5840909-3.43035714.6143939-4.515625 0-.47433035-.2280303-.89553571-.5530303-1.23705357-.9537879-.31419643-.4037879-.54794643-.864394-.690625-1.3560606-.11915178-.3727273-.2125-.7515152-.28080357-1.1363637v-.1893939H12.864067v-.8863636c.1290178-2.5969697-1.3895982-4.994697-3.79464289-5.9924243-.84848215-.3560606-1.7584375-.5416667-2.67901786-.5454545-.86973214.0348485-1.72504464.235606-2.51964286.5909091-.76424107.3424242-1.45714285.8257575-2.04151785 1.4242424-.57982143.5954545-1.03897322 1.2984848-1.35089286 2.0681818-.32178572.7992424-.4834375 1.6537879-.478125 2.5151515.02428571.9037879.21705357 1.7954546.56919643 2.6287879.33013393.7704545.80674107 1.4704545 1.40401785 2.0606061.595.5818181 1.29852679 1.0393939 2.071875 1.3484848.82116072.3227273 1.69772322.4848485 2.58035715.4772727h.28080357c.51834821-.0015151 1.03214286-.0931818 1.51785714-.2727272.56160714-.2068182 1.115625-.4340909 1.66205358-.6818182l.1138393-.0378788z"/>
  <path fill="#18C471" d="M26.2969509 6.82568182L20.0965045 20.7044697l-4.3107143-9.4924242h-3.2558036l5.8285714 12.9848484h2.3147322l8.18125-17.37121208z"/>
  <path fill="#46D08D" d="M19.0645134 2.07568182l-.1214286 7.3560606h2.1022322l.1214285-7.3560606z"/>
  <path fill="#18C471" d="M23.4813259 3.31083333l-1.6392857 6.12121212h2.1401785l1.6392858-6.12121212zM12.97008957.75765167l3.02053573 8.67424242h2.25401785L15.22410743.75765167z"/>
  <path fill="#302B29" d="M29.6743348 16.6061364c.0561607-.4037879.1479911-.8015152.2732143-1.189394.1426786-.4522727.3551786-.8787879.6299107-1.2651515.2572768-.3583333.5851339-.6598485.9638393-.8863636.393125-.2325758.8408929-.3560606 1.2977679-.3560606.8773214-.0416667 1.7303571.2984848 2.3375.9318181.6321875.784091 1.0033035 1.7454546 1.0625 2.7492425v.1893939h-6.6102679l.0455357-.1734848zm7.0200893 6.7272727l-.2580357-1.0613636h-.10625c-2.178125.5916666-3.4303572.6068181-4.5080357 0-.4804018-.2462122-.9016072-.5924243-1.2370536-1.014394-.3141964-.4045454-.5487054-.8643939-.690625-1.3560606-.1100446-.3734848-.1958036-.7530303-.2580357-1.1363636v-.189394h9.721875v-.8863636c.1290178-2.5969697-1.3895982-4.994697-3.7946429-5.9924242-.8484821-.3568182-1.7591964-.5416667-2.6790178-.5454546-.8795982.0287879-1.7455357.2265152-2.55.5833333-.7634822.3431819-1.4563839.8265152-2.0415179 1.4242425-.5790625.5962121-1.0382143 1.2984848-1.3508928 2.0681818-.3217857.7992424-.4841965 1.6537879-.478125 2.5151515.0258035.9045455.2216071 1.7962121.5767857 2.6287879.3301339.7704545.8075 1.4704545 1.4040178 2.060606.5942411.5818182 1.2985268 1.0401516 2.071875 1.3484849.8211607.3227273 1.6977233.4848485 2.5803572.4772727h.2732143c.5183482-.0007576 1.0313839-.0931818 1.5178571-.2727273.5616072-.2121212 1.115625-.4393939 1.6620536-.6818181l.1441964.030303zM45.4221027 13.78c.3020536-.3295455.6875893-.5727273 1.115625-.7045455.4181696-.1227272.8537946-.1840909 1.2901785-.1810606h.3415179c.4204464-.0075757.8386161.0568182 1.2370536.189394.3946428.1386363.7414732.3848485 1.0017857.7121212.2990178.4022727.5062053.8643939.6071428 1.3560606.1533036.7083333.2254018 1.4333333.2125001 2.1583333v7h3.2330357v-6.1742424c.0113839-.9757576-.1085268-1.9492424-.3574554-2.8931818-.2147768-.8121212-.6079018-1.5651515-1.1528125-2.2045455-.5517411-.6265151-1.2469196-1.1098485-2.0263393-1.4090909-.9721875-.3507576-2.0020536-.5174242-3.0357143-.4931818-1.8441964-.1159091-3.6481696.5689394-4.9482143 1.8787879-1.2066964 1.4257576-1.8229464 3.2575757-1.7227678 5.1212121v6.1901515h3.2330357v-7c-.0182143-.7227273.0667857-1.4454545.2504464-2.1439394.1275-.5174242.3741518-.9977272.7209822-1.4022727m14.0935312 2.8261364c.0561607-.4037879.1472322-.8022728.2724554-1.189394.1396428-.4522727.3491071-.8787879.6230803-1.2651515.2587947-.3598485.5896875-.6613636.9714286-.8863636.3984375-.2378788.8560714-.3606061 1.3197768-.3560606.8773214-.0416667 1.7303571.2984848 2.3375.9318181.6367411.7909091 1.0078571 1.7606061 1.0632589 2.7727273v.189394h-6.6102678l.0227678-.1969697zm7.0420982 6.7272727l-.2580357-1.0613636h-.105491c-2.178125.5916666-3.4311161.6068181-4.5087947 0-.4788839-.2462122-.9008482-.5924243-1.2370536-1.014394-.3126785-.405303-.5464285-.8651515-.690625-1.3560606-.1100446-.3734848-.1958035-.7530303-.2580357-1.1363636v-.189394h9.722634v-.8863636c.1290178-2.5969697-1.3895983-4.994697-3.7946429-5.9924242-.8484821-.3560607-1.7584375-.5416667-2.6790179-.5454546-.8826339.0272727-1.7516071.2257576-2.5575892.5833333-.7634822.3439394-1.455625.8272728-2.0422768 1.4242425-.5760268.5969697-1.031384 1.2992424-1.3425447 2.0681818-.3233035.7984848-.4857143 1.6530303-.478125 2.5151515.0235268.9037879.2170536 1.7954545.5691965 2.6287879.3301339.7704545.806741 1.4704545 1.4032589 2.060606.5927232.5810606 1.2939732 1.039394 2.0642857 1.3484849.8219196.3227273 1.6977232.4840909 2.5811161.4772727h.2732143c.5175892-.0007576 1.0313839-.0931818 1.5178571-.2727273.5608482-.2068181 1.115625-.4340909 1.6612946-.6818181l.159375.030303zM80.44695968 21.2803026c-.53732143.8340909-1.46700893 1.3318182-2.45892857 1.3181818h-.29674107c-.43410715.0037879-.8659375-.0575758-1.28183036-.1818182-.43258929-.1272727-.82116072-.3712121-1.12397322-.7045454-.3559375-.3924243-.61473214-.8613637-.75892857-1.37121216-.18745535-.70909091-.27473214-1.44090909-.25803571-2.17424243v-.92424242c-.01517857-.73106061.07133928-1.45984849.25803571-2.16666667.1434375-.50909091.40299107-.97878788.75892857-1.37121212.30357143-.32878788.68834822-.5719697 1.11638393-.70454545.41892857-.12272728.85303572-.18409091 1.28941965-.18181819h.34151785c.43790179-.00378788.87352679.05984849 1.2909375.18939394.43486607.14924243.82267857.41060606 1.12321429.75757576.35290182.38863636.61245532.85227273.75892862 1.35606061.1889732.72121212.27625 1.46666666.2580357 2.21212121.06375 1.375-.2906697 2.73863636-1.01696432 3.90909092v.0378788zm4.22647322 3.030303V17.704545c-.0204911-.93257576-.1715179-1.85833333-.4477679-2.75-.4978571-1.61969697-1.7508482-2.89848485-3.3612946-3.43181818-1.98156251-.58939394-4.09138394-.58939394-6.07142858 0-.77638393.28257576-1.47535714.74166666-2.04227678 1.34090909-.54870536.60151515-.96080358 1.31515151-1.2059375 2.09090909-.27928572.89924242-.43258929 1.83181818-.45535715 2.77272727.02428572.93030303.17758929 1.85378788.45535715 2.74242425.244375.77878788.65647321 1.49469698 1.2059375 2.09848488.56540178.5977272 1.26513392 1.0530303 2.04227678 1.3257575.95700893.325 1.96410714.4787879 2.975.4545455.37491072.0015151.7490625-.0393939 1.11486607-.1212121.35366072-.0848485.68834822-.2333334.98660715-.439394.34075892-.2386363.64433035-.5242424.90388396-.8484848.1214285-.1515152.2504464-.3174243.371875-.5068182l.3028125-.455303v2.3636363l3.2254464-.030303z"/>
</svg>
