<svg viewBox="0 0 201 151" xmlns="http://www.w3.org/2000/svg" xmlns:xlink="http://www.w3.org/1999/xlink">
  <defs>
    <rect id="a" width="201" height="150" rx="1.5"/>
  </defs>
  <g transform="translate(0 .665444)" fill="none" fill-rule="evenodd">
    <mask id="b" fill="#fff">
      <use xlink:href="#a"/>
    </mask>
    <use fill="#FFF" xlink:href="#a"/>
    <g mask="url(#b)" stroke="#4FC894" stroke-width=".75">
      <path d="M72.09842017 103.04897395l-1.01296252 5.28214846-2.7585928.48606867-2.12983392 2.2135695-.0485684 7.9317995-2.73395757.55375349s-1.94542342 1.75846182-2.08573709 2.33472462c-.23926472.9826515-2.29749948 1.75291193-2.29749948 1.75291193l-3.55959263-1.71466018-1.81088204 3.08988266-4.71840198-4.89846273-2.95567476-.0554098-1.62294492 3.60623566-4.41008803-4.05137711-2.30862617 1.7223419-2.6398956.81218634-3.50436917-1.56293498-2.02345443 2.5058448-3.31325931-1.03786497-1.63059669 3.58521231M72.18203778 103.01853963l4.95266833 5.54210424 2.34326903-1.62716144 3.28314893.95513767 6.39426187 9.50284992 2.38009422-1.52598502s2.7876426.55551631 3.34906582 1.13624254c.95734676.99026267 3.03251935.26653854 3.03251935.26653854l1.14592021-4.91685025 3.75992402 2.26506615-.58628868-9.67605508 2.0486672-2.43657299 4.04085577 3.0369198-.12541548-8.40981639 3.01588721.22084185 2.52069953-1.13967485 1.22846923-4.69004869 3.44216702 1.39203598 1.51414328-3.90516453 4.02941803 3.0054937"/>
      <path d="M175.730097 77.46285707l-1.26323353 7.32448542-2.84946942-.1381677-2.27812186 2.54980646-.38689876 11.4473164-2.82708265-.03285103s-2.15217864 1.9658665-2.23805247 2.7383229c-.14643387 1.31720377-2.43047788 1.83302771-2.43047788 1.83302771l-3.5773295-3.56248011-1.9882946 3.91334129-4.6303264-8.51644588-3.0285558-.98070286-1.81751713 4.71678135-4.35016574-7.19838875-2.44058848 1.78546108-2.74161057.3692683-3.52714856-3.32639735-2.18145591 3.00458396-3.35348903-2.5093935-4.62642491.98337697"/>
    </g>
    <g mask="url(#b)">
      <text font-family="AvertaStd-Regular, Averta Std" font-size="21.75" letter-spacing="-.66923069" transform="translate(22.5 25.5)">
        <tspan x="0" y="21" fill="#2A2B36">25 046 zł</tspan>
      </text>
      <text opacity=".66999996" font-family="AvertaStd-Semibold, Averta Std" font-size="10.75" font-weight="500" transform="translate(22.5 25.5)">
        <tspan x="0" y="38.25" fill="#2F3A4B">Dochód z biletów</tspan>
      </text>
    </g>
  </g>
</svg>

