<?xml version="1.0" encoding="utf-8" ?>
<svg xmlns="http://www.w3.org/2000/svg" xmlns:xlink="http://www.w3.org/1999/xlink" width="36" height="36">
	<defs>
		<clipPath id="clip_0">
			<rect x="-775" y="-5153" width="1551" height="5957" clip-rule="evenodd"/>
		</clipPath>
	</defs>
	<g clip-path="url(#clip_0)">
		<path fill="rgb(205,247,233)" stroke="none" d="M18 36C27.9411 36 36 27.9411 36 18C36 8.05887 27.9411 0 18 0C8.05887 0 0 8.05887 0 18C0 27.9411 8.05887 36 18 36Z"/>
	</g>
	<defs>
		<clipPath id="clip_1">
			<rect x="-775" y="-5153" width="1551" height="5957" clip-rule="evenodd"/>
		</clipPath>
	</defs>
	<g clip-path="url(#clip_1)">
		<path fill="#13B080" stroke="none" transform="translate(9 7)" d="M8.88867 12.0232C7.20689 12.0232 5.8481 10.6644 5.8481 8.9826C5.8481 7.31196 7.20689 5.95317 8.88867 5.95317C10.5593 5.95317 11.9181 7.31196 11.9181 8.9826C11.9181 10.6644 10.5593 12.0232 8.88867 12.0232M8.56568 0.00568808C4.14405 0.150477 0.468641 3.60313 0.0454118 8.01362C-0.043689 8.89349 0.000861426 9.75109 0.156788 10.5641C0.156788 10.5641 0.167925 10.6644 0.212476 10.8426C0.357265 11.4551 0.557742 12.0566 0.813906 12.6135C1.70491 14.7185 3.76537 18.2491 8.38748 22.0916C8.67705 22.3254 9.08914 22.3254 9.37872 22.0916C14.0008 18.2602 16.0613 14.7296 16.9523 12.6023C17.2085 12.0454 17.4089 11.4551 17.5537 10.8426C17.5871 10.6644 17.6094 10.5641 17.6094 10.5641C17.7096 10.0184 17.7653 9.45037 17.7653 8.88236C17.7653 3.8593 13.6221 -0.172514 8.56568 0.00568808"/>
	</g>

</svg>
