<?xml version="1.0" encoding="utf-8" ?>
<svg xmlns="http://www.w3.org/2000/svg" xmlns:xlink="http://www.w3.org/1999/xlink" width="36" height="36">
	<defs>
		<clipPath id="clip_0">
			<rect x="-871" y="-5153" width="1551" height="5957" clip-rule="evenodd"/>
		</clipPath>
	</defs>
	<g clip-path="url(#clip_0)">
		<path fill="rgb(205,247,233)" stroke="none" d="M18 36C27.9411 36 36 27.9411 36 18C36 8.05887 27.9411 0 18 0C8.05887 0 0 8.05887 0 18C0 27.9411 8.05887 36 18 36Z"/>
	</g>
	<defs>
		<clipPath id="clip_1">
			<rect x="-871" y="-5153" width="1551" height="5957" clip-rule="evenodd"/>
		</clipPath>
	</defs>
	<g clip-path="url(#clip_1)">
		<path fill="rgb(79,200,148)" stroke="none" transform="translate(9 8)" d="M4.23286 8.46571C1.89873 8.46571 0 6.56678 0 4.23286C0 1.89894 1.89889 0 4.23286 0C6.56682 0 8.46554 1.89894 8.46554 4.23269C8.46571 6.56682 6.56678 8.46571 4.23286 8.46571ZM2.30405 17.5944L0.395896 15.6862L15.6867 0.395456L17.5948 2.30361L2.30405 17.5944ZM2.69861 4.23269C2.69861 3.38676 3.38693 2.69861 4.23286 2.69861C5.07879 2.69861 5.7671 3.38676 5.76693 4.23269C5.76693 5.07879 5.07879 5.76693 4.23286 5.76693C3.38693 5.76693 2.69861 5.07879 2.69861 4.23269ZM13.7571 17.9908C11.4232 17.9908 9.52446 16.0918 9.52446 13.7579C9.52446 11.424 11.4232 9.52488 13.7571 9.52488C16.0913 9.52488 17.99 11.4238 17.99 13.7577C17.99 16.0917 16.0911 17.9908 13.7571 17.9908ZM12.2231 13.7577C12.2231 12.9118 12.9112 12.2234 13.7571 12.2234C14.6031 12.2234 15.2914 12.9119 15.2914 13.7579C15.2914 14.6038 14.6031 15.2921 13.7571 15.2921C12.9112 15.2921 12.2231 14.6036 12.2231 13.7577Z" fill-rule="evenodd"/>
	</g>

</svg>