<?xml version="1.0" encoding="utf-8" ?>
<svg xmlns="http://www.w3.org/2000/svg" xmlns:xlink="http://www.w3.org/1999/xlink" width="36" height="36">
	<defs>
		<clipPath id="clip_0">
			<rect x="-1207" y="-5154" width="1551" height="5957" clip-rule="evenodd"/>
		</clipPath>
	</defs>
	<g clip-path="url(#clip_0)">
		<path fill="rgb(205,247,233)" stroke="none" d="M18 36C27.9411 36 36 27.9411 36 18C36 8.05887 27.9411 0 18 0C8.05887 0 0 8.05887 0 18C0 27.9411 8.05887 36 18 36Z"/>
	</g>
	<defs>
		<clipPath id="clip_1">
			<rect x="-1207" y="-5154" width="1551" height="5957" clip-rule="evenodd"/>
		</clipPath>
	</defs>
	<g clip-path="url(#clip_1)">
		<path fill="#13B080" stroke="none" transform="translate(10.5 9.5)" d="M16 8.66667C16 9.06667 15.7333 9.33333 15.3333 9.33333L9.66667 9.33333C9.46667 9.33333 9.33333 9.46667 9.33333 9.66667L9.33333 15.3333C9.33333 15.7333 9.06667 16 8.66667 16L7.33333 16C6.93333 16 6.66667 15.7333 6.66667 15.3333L6.66667 9.66667C6.66667 9.46667 6.53333 9.33333 6.33333 9.33333L0.666667 9.33333C0.266667 9.33333 0 9.06667 0 8.66667L0 7.33333C0 6.93333 0.266667 6.66667 0.666667 6.66667L6.33333 6.66667C6.53333 6.66667 6.66667 6.53333 6.66667 6.33333L6.66667 0.666667C6.66667 0.266667 6.93333 0 7.33333 0L8.66667 0C9.06667 0 9.33333 0.266667 9.33333 0.666667L9.33333 6.33333C9.33333 6.53333 9.46667 6.66667 9.66667 6.66667L15.3333 6.66667C15.7333 6.66667 16 6.93333 16 7.33333L16 8.66667Z"/>
	</g>
</svg>
