<?xml version="1.0" encoding="utf-8" ?>
<svg xmlns="http://www.w3.org/2000/svg" xmlns:xlink="http://www.w3.org/1999/xlink" width="20" height="21">
	<defs>
		<clipPath id="clip_0">
			<rect x="-979.27997" y="-4952.1201" width="1488.96" height="5718.7197" clip-rule="evenodd"/>
		</clipPath>
	</defs>
	<g clip-path="url(#clip_0)">
		<path fill="#B3B3B3" stroke="none" transform="matrix(0.96 0 0 0.96 0 0)" d="M8.7822 2.30386C12.3611 2.30386 15.2734 5.23251 15.2734 8.83148C15.2734 12.4318 12.3611 15.3591 8.7822 15.3591C5.20201 15.3591 2.28971 12.4318 2.28971 8.83148C2.28971 5.23251 5.20201 2.30386 8.7822 2.30386M20.6799 19.9239L15.5038 14.5091C16.8357 12.9186 17.5644 10.9167 17.5644 8.83148C17.5644 3.96213 13.6244 0 8.7822 0C3.94002 0 0 3.96213 0 8.83148C0 13.7008 3.94002 17.663 8.7822 17.663C10.5995 17.663 12.3313 17.1124 13.8134 16.0659L19.0296 21.521C19.2484 21.7487 19.5422 21.875 19.8554 21.875C20.1531 21.875 20.4353 21.7605 20.6489 21.5535C21.1045 21.1123 21.1187 20.382 20.6799 19.9239"/>
	</g>
</svg>
