<?xml version="1.0" encoding="utf-8" ?>
<svg xmlns="http://www.w3.org/2000/svg" xmlns:xlink="http://www.w3.org/1999/xlink" width="35" height="35">
	<defs>
		<clipPath id="clip_0">
			<rect x="-135" y="-1840" width="1551" height="3303" clip-rule="evenodd"/>
		</clipPath>
	</defs>
	<g clip-path="url(#clip_0)">
		<path fill="rgb(205,247,233)" stroke="none" d="M17.5 35C27.165 35 35 27.165 35 17.5C35 7.83502 27.165 0 17.5 0C7.83502 0 0 7.83502 0 17.5C0 27.165 7.83502 35 17.5 35Z"/>
	</g>
	<defs>
		<clipPath id="clip_1">
			<rect x="-135" y="-1840" width="1551" height="3303" clip-rule="evenodd"/>
		</clipPath>
	</defs>
	<g clip-path="url(#clip_1)">
		<path fill="rgb(79,200,148)" stroke="none" transform="translate(10 10)" d="M4.84188 13.7779C4.97829 13.9201 5.16333 14 5.35623 14C5.54918 14 5.73417 13.9201 5.87053 13.7779L15.7869 3.43941C15.9234 3.2972 16 3.10433 16 2.90322C16 2.70206 15.9234 2.50919 15.7869 2.36698L13.7296 0.222098C13.4456 -0.0740073 12.985 -0.0740578 12.7009 0.222098L5.35642 7.87932L3.29902 5.73434C3.16261 5.59213 2.97757 5.5122 2.78467 5.5122C2.59177 5.5122 2.40677 5.59213 2.27037 5.73434L0.213012 7.87927C-0.0710039 8.17542 -0.0710039 8.65555 0.213012 8.95171L4.84188 13.7779Z"/>
	</g>
</svg>
