<?xml version="1.0" encoding="utf-8" ?>
<svg xmlns="http://www.w3.org/2000/svg" xmlns:xlink="http://www.w3.org/1999/xlink" width="36" height="36">
	<defs>
		<clipPath id="clip_0">
			<rect x="-438" y="-5153" width="1551" height="5957" clip-rule="evenodd"/>
		</clipPath>
	</defs>
	<g clip-path="url(#clip_0)">
		<path fill="rgb(205,247,233)" stroke="none" d="M18 36C27.9411 36 36 27.9411 36 18C36 8.05887 27.9411 0 18 0C8.05887 0 0 8.05887 0 18C0 27.9411 8.05887 36 18 36Z"/>
	</g>
	<defs>
		<clipPath id="clip_1">
			<rect x="-438" y="-5153" width="1551" height="5957" clip-rule="evenodd"/>
		</clipPath>
	</defs>
	<g clip-path="url(#clip_1)">
		<path fill="rgb(79,200,148)" stroke="none" transform="matrix(-1 0 0 1 28.03 8)" d="M6.862 9.192C6.246 8.576 6.246 7.582 6.862 6.966C7.478 6.35 8.472 6.35 9.088 6.966C9.703 7.582 9.703 8.576 9.088 9.192C8.472 9.808 7.478 9.808 6.862 9.192M18.175 15.208L20.03 13.354L12.478 5.801C11.862 6.417 10.868 6.417 10.252 5.801C9.636 5.186 9.636 4.192 10.252 3.576L6.676 0L4.821 1.855C5.23 2.263 5.437 2.797 5.43 3.338C5.437 3.88 5.23 4.414 4.821 4.822C4.414 5.23 3.88 5.438 3.338 5.43C2.797 5.438 2.262 5.23 1.854 4.822L0 6.677L3.575 10.253C4.191 9.637 5.185 9.637 5.801 10.253C6.417 10.868 6.417 11.862 5.801 12.478L13.353 20.03L15.208 18.176C14.392 17.36 14.392 16.025 15.208 15.208C15.616 14.8 16.15 14.592 16.692 14.6C17.233 14.592 17.767 14.8 18.175 15.208"/>
	</g>
</svg>
