<?xml version="1.0" encoding="utf-8" ?>
<svg xmlns="http://www.w3.org/2000/svg" xmlns:xlink="http://www.w3.org/1999/xlink" width="36" height="36">
	<defs>
		<clipPath id="clip_0">
			<rect x="-1254" y="-5153" width="1551" height="5957" clip-rule="evenodd"/>
		</clipPath>
	</defs>
	<g clip-path="url(#clip_0)">
		<path fill="rgb(205,247,233)" stroke="none" d="M18 36C27.9411 36 36 27.9411 36 18C36 8.05887 27.9411 0 18 0C8.05887 0 0 8.05887 0 18C0 27.9411 8.05887 36 18 36Z"/>
	</g>
	<defs>
		<clipPath id="clip_1">
			<rect x="-1254" y="-5153" width="1551" height="5957" clip-rule="evenodd"/>
		</clipPath>
	</defs>
	<g clip-path="url(#clip_1)">
		<path fill="rgb(90,199,135)" stroke="none" transform="translate(7 10)" d="M22.2147 2.50868L10.1641 16.0656C9.8674 16.3993 9.45392 16.571 9.03742 16.571C8.70678 16.571 8.37464 16.4625 8.09672 16.2411L0.565097 10.2158C-0.0841284 9.69686 -0.189571 8.74863 0.330111 8.09865C0.84904 7.44942 1.79802 7.34323 2.44725 7.86291L8.86193 12.9942L19.9628 0.506019C20.5141 -0.116093 21.4676 -0.17258 22.089 0.380995C22.7111 0.934569 22.7676 1.88657 22.2147 2.50868Z"/>
	</g>
</svg>
